<?xml version="1.0" encoding="utf-8"?>
<!-- Generator: Adobe Illustrator 16.0.4, SVG Export Plug-In . SVG Version: 6.00 Build 0)  -->
<!DOCTYPE svg PUBLIC "-//W3C//DTD SVG 1.1//EN" "http://www.w3.org/Graphics/SVG/1.1/DTD/svg11.dtd">
<svg version="1.1" id="Capa_1" xmlns="http://www.w3.org/2000/svg" xmlns:xlink="http://www.w3.org/1999/xlink" x="0px" y="0px"
	 width="17px" height="7px" viewBox="-21.332 118.668 17 7" enable-background="new -21.332 118.668 17 7" xml:space="preserve">
<g>
	<path fill="#FA0E0E" d="M-10.385,122.218l-1.452-0.889l1.452-0.888c0.025-0.016,0.043-0.04,0.05-0.068
		c0.007-0.027,0.002-0.059-0.013-0.084l-0.427-0.695c-0.032-0.054-0.1-0.068-0.152-0.039l-1.386,0.85v-1.626
		c0-0.061-0.05-0.11-0.111-0.11h-0.817c-0.061,0-0.111,0.05-0.111,0.11v1.626l-1.386-0.85c-0.052-0.029-0.12-0.015-0.151,0.039
		l-0.427,0.695c-0.015,0.025-0.02,0.057-0.013,0.084c0.007,0.028,0.025,0.053,0.049,0.07l1.452,0.886l-1.452,0.889
		c-0.024,0.015-0.042,0.04-0.049,0.068s-0.002,0.059,0.013,0.083l0.427,0.698c0.032,0.053,0.1,0.068,0.151,0.035l1.386-0.847v1.626
		c0,0.06,0.05,0.109,0.111,0.109h0.817c0.061,0,0.111-0.05,0.111-0.109v-1.626l1.386,0.847c0.052,0.033,0.12,0.018,0.152-0.035
		l0.427-0.698c0.015-0.024,0.02-0.055,0.013-0.083S-10.36,122.233-10.385,122.218z"/>
</g>
</svg>
